<!--?xml version="1.0" encoding="utf-8"?-->
<!-- Generator: Adobe Illustrator 18.1.1, SVG Export Plug-In . SVG Version: 6.00 Build 0)  -->

<svg version="1.1" id="_x32_" xmlns="http://www.w3.org/2000/svg" xmlns:xlink="http://www.w3.org/1999/xlink" x="0px" y="0px" viewBox="0 0 512 512" style="width: 256px; height: 256px; opacity: 1;" xml:space="preserve">
<style type="text/css">
	.st0{fill:#4B4B4B;}
</style>
<g>
	<path class="st0" d="M262.771,118.151c2.436-18.996,15.484-20.638,15.484-26.638c0-6.617-1.322-19.851-25.131-19.851
		c-23.816,0-25.146,13.234-25.146,19.851c0,6.023,13.16,7.664,15.514,26.876c-49.088,3.208-89.235,25.049-88.203,45.122H356.24
		C356.24,145.302,311.496,120.379,262.771,118.151z" style="fill: rgb(66,96,45);"></path>
	<path class="st0" d="M508.733,182.137c-5.287,0-70.781,5.956-70.781,5.956s-13.263,34.302-33.508,53.232
		c-10.702-32.023-28.458-59.255-48.205-62.931H155.289c-11.548,0-26.275,18.499-38.098,43.222
		C84.634,205.56,52.5,189.37,43.039,183.459c-31.756-19.843-57.555,49.616-33.739,61.52c6.335,3.164,48.784,19.331,89.258,34.556
		c-1.3,7.753-2.042,15.313-2.042,22.39c0,28.28,49.192,138.413,80.532,138.413h157.44c15.06,0,42.546-38.216,61.163-76.655
		c25.525-13.59,52.594-56.96,64.134-94.887c14.69-48.25,43.935-74.926,48.947-78.059
		C514.028,187.425,512.038,182.137,508.733,182.137z" style="fill: rgb(66,96,45);"></path>
</g>
</svg>
